<?xml version="1.0" encoding="utf-8"?>
<!DOCTYPE svg PUBLIC "-//W3C//DTD SVG 1.1//EN" "http://www.w3.org/Graphics/SVG/1.1/DTD/svg11.dtd">
<svg xmlns="http://www.w3.org/2000/svg" xmlns:xlink="http://www.w3.org/1999/xlink">  
  <symbol id="vplayer-airplay" viewBox="0 0 18 18"> 
    <path d="M16 1H2a1 1 0 00-1 1v10a1 1 0 001 1h3v-2H3V3h12v8h-2v2h3a1 1 0 001-1V2a1 1 0 00-1-1z"/>  
    <path d="M4 17h10l-5-6z"/> 
  </symbol>  
  <symbol id="vplayer-captions-off" viewBox="0 0 18 18"> 
    <path d="M1 1c-.6 0-1 .4-1 1v11c0 .6.4 1 1 1h4.6l2.7 2.7c.2.2.4.3.7.3.3 0 .5-.1.7-.3l2.7-2.7H17c.6 0 1-.4 1-1V2c0-.6-.4-1-1-1H1zm4.52 10.15c1.99 0 3.01-1.32 3.28-2.41l-1.29-.39c-.19.66-.78 1.45-1.99 1.45-1.14 0-2.2-.83-2.2-2.34 0-1.61 1.12-2.37 2.18-2.37 1.23 0 1.78.75 1.95 1.43l1.3-.41C8.47 4.96 7.46 3.76 5.5 3.76c-1.9 0-3.61 1.44-3.61 3.7 0 2.26 1.65 3.69 3.63 3.69zm7.57 0c1.99 0 3.01-1.32 3.28-2.41l-1.29-.39c-.19.66-.78 1.45-1.99 1.45-1.14 0-2.2-.83-2.2-2.34 0-1.61 1.12-2.37 2.18-2.37 1.23 0 1.78.75 1.95 1.43l1.3-.41c-.28-1.15-1.29-2.35-3.25-2.35-1.9 0-3.61 1.44-3.61 3.7 0 2.26 1.65 3.69 3.63 3.69z" fill-rule="evenodd" fill-opacity=".5"/>
  </symbol>
  <symbol id="vplayer-captions-on" viewBox="0 0 18 18">
    <path d="M1 1c-.6 0-1 .4-1 1v11c0 .6.4 1 1 1h4.6l2.7 2.7c.2.2.4.3.7.3.3 0 .5-.1.7-.3l2.7-2.7H17c.6 0 1-.4 1-1V2c0-.6-.4-1-1-1H1zm4.52 10.15c1.99 0 3.01-1.32 3.28-2.41l-1.29-.39c-.19.66-.78 1.45-1.99 1.45-1.14 0-2.2-.83-2.2-2.34 0-1.61 1.12-2.37 2.18-2.37 1.23 0 1.78.75 1.95 1.43l1.3-.41C8.47 4.96 7.46 3.76 5.5 3.76c-1.9 0-3.61 1.44-3.61 3.7 0 2.26 1.65 3.69 3.63 3.69zm7.57 0c1.99 0 3.01-1.32 3.28-2.41l-1.29-.39c-.19.66-.78 1.45-1.99 1.45-1.14 0-2.2-.83-2.2-2.34 0-1.61 1.12-2.37 2.18-2.37 1.23 0 1.78.75 1.95 1.43l1.3-.41c-.28-1.15-1.29-2.35-3.25-2.35-1.9 0-3.61 1.44-3.61 3.7 0 2.26 1.65 3.69 3.63 3.69z" fill-rule="evenodd"/>
  </symbol>
  <symbol id="vplayer-download" viewBox="0 0 1080 1080">
    <path d="M499.6 724.1c6.8 6.8 17.7 6.8 24.4 0l281.4-276.7c4.9-5 6.4-12.4 3.8-18.9-2.7-6.4-9-10.6-16-10.6l-169.8 0.1V137.3c0-9.6-7.8-17.3-17.3-17.3H418.2c-4.6 0-9 1.8-12.2 5-3.2 3.2-5.1 7.7-5.1 12.2V418l-170.2 0.1c-4.7 0-9 1.9-12.2 5.1-1.6 1.6-2.9 3.5-3.8 5.6-2.7 6.5-1.2 13.9 3.8 18.8l281.1 276.5z"></path>
    <path d="M875.1 630.6h-50.5c-11.4 0-20.6 9.2-20.6 20.6v161H222.4v-161c0-11.4-9.2-20.6-20.6-20.6h-52.9c-11.4 0-20.6 9.2-20.6 20.6v191.6c0 33.8 27.4 61.2 61.2 61.2h645.1c33.8 0 61.2-27.4 61.2-61.2V651.2c-0.1-11.3-9.3-20.6-20.7-20.6z"></path>
  </symbol>
  <symbol id="vplayer-enter-fullscreen" viewBox="0 0 22 22">
    <path d="M18 4H4a2 2 0 00-2 2v10a2 2 0 002 2h14a2 2 0 002-2V6a2 2 0 00-2-2zm-9.404 8.773a.5.5 0 010 .707l-.707.707a.5.5 0 01-.707 0l-2.828-2.828a.5.5 0 010-.707l2.828-2.828a.5.5 0 01.707 0l.707.707a.5.5 0 010 .707l-1.768 1.768 1.768 1.767zm9.05-1.414l-2.828 2.828a.5.5 0 01-.707 0l-.707-.707a.5.5 0 010-.707l1.768-1.768-1.768-1.768a.5.5 0 010-.707l.707-.707a.5.5 0 01.707 0l2.828 2.828a.502.502 0 010 .708z"></path>
  </symbol>
  <symbol id="vplayer-exit-fullscreen" viewBox="0 0 22 22">
    <path d="M18 4H4a2 2 0 00-2 2v10a2 2 0 002 2h14a2 2 0 002-2V6a2 2 0 00-2-2zm-8.404 7.359l-2.828 2.828a.5.5 0 01-.707 0l-.707-.707a.5.5 0 010-.707l1.768-1.768-1.768-1.767a.5.5 0 010-.707l.707-.707a.5.5 0 01.707 0l2.828 2.828a.5.5 0 010 .707zm7.05 1.414a.5.5 0 010 .707l-.707.707a.5.5 0 01-.707 0l-2.828-2.828a.5.5 0 010-.707l2.828-2.828a.5.5 0 01.707 0l.707.707a.5.5 0 010 .707l-1.768 1.768 1.768 1.767z"></path>
  </symbol>
  <symbol id="vplayer-fast-forward" viewBox="0 0 18 18">
    <path d="M7.875 7.171L0 1v16l7.875-6.171V17L18 9 7.875 1z"/> 
  </symbol>
  <symbol id="vplayer-muted" viewBox="0 0 18 18"> 
    <path d="M12.4 12.5l2.1-2.1 2.1 2.1 1.4-1.4L15.9 9 18 6.9l-1.4-1.4-2.1 2.1-2.1-2.1L11 6.9 13.1 9 11 11.1zM3.786 6.008H.714C.286 6.008 0 6.31 0 6.76v4.512c0 .452.286.752.714.752h3.072l4.071 3.858c.5.3 1.143 0 1.143-.602V2.752c0-.601-.643-.977-1.143-.601L3.786 6.008z"/>
  </symbol>
  <symbol id="vplayer-pause" viewBox="0 0 22 22"> <!--暂停-->
   <path d="M7 3a2 2 0 00-2 2v12a2 2 0 104 0V5a2 2 0 00-2-2zM15 3a2 2 0 00-2 2v12a2 2 0 104 0V5a2 2 0 00-2-2z"></path>
  </symbol>
  <symbol id="vplayer-pip" viewBox="0 0 22 22">
    <path d="M17 4a2 2 0 012 2v6h-2V6.8a.8.8 0 00-.8-.8H4.8a.8.8 0 00-.794.7L4 6.8v8.4a.8.8 0 00.7.794l.1.006H11v2H4a2 2 0 01-2-2V6a2 2 0 012-2h13z"></path>
    <rect x="13" y="14" width="8" height="6" rx="1"></rect>
  </symbol>
  <symbol id="vplayer-play" viewBox="0 0 22 22"> 
    <path d="M17.982 9.275L8.06 3.27A2.013 2.013 0 005 4.994v12.011a2.017 2.017 0 003.06 1.725l9.922-6.005a2.017 2.017 0 000-3.45z"></path>
  </symbol>
  <symbol id="vplayer-restart" viewBox="0 0 1080 1080"> 
   <path d="M818.83168 921.881435H921.867767a51.058517 51.058517 0 0 1 0 102.117033h-408.468135a511.963748 511.963748 0 1 1 305.432048-102.117033zM513.399632 104.945165a408.468135 408.468135 0 1 0 408.468135 408.468135 408.468135 408.468135 0 0 0-408.468135-408.468135z m204.234068 510.585168a102.117034 102.117034 0 1 1 102.117034-102.117033 102.117034 102.117034 0 0 1-102.117034 102.117033z m-204.234068-204.234067a102.117034 102.117034 0 1 1 102.117034-102.117034 102.117034 102.117034 0 0 1-102.117034 102.117034z m-204.234067 204.234067a102.117034 102.117034 0 1 1 102.117034-102.117033 102.117034 102.117034 0 0 1-102.117034 102.117033z m204.234067 0a102.117034 102.117034 0 1 1-102.117033 102.117034 102.117034 102.117034 0 0 1 102.117033-102.117034z"></path>
  </symbol>
  <symbol id="vplayer-rewind" viewBox="0 0 18 18">
    <path d="M10.125 1L0 9l10.125 8v-6.171L18 17V1l-7.875 6.171z"/>
  </symbol>
  <symbol id="vplayer-settings" viewBox="0 0 22 22">
    <circle cx="11" cy="11" r="2"></circle>
   <path d="M19.164 8.861L17.6 8.6a6.978 6.978 0 00-1.186-2.099l.574-1.533a1 1 0 00-.436-1.217l-1.997-1.153a1.001 1.001 0 00-1.272.23l-1.008 1.225a7.04 7.04 0 00-2.55.001L8.716 2.829a1 1 0 00-1.272-.23L5.447 3.751a1 1 0 00-.436 1.217l.574 1.533A6.997 6.997 0 004.4 8.6l-1.564.261A.999.999 0 002 9.847v2.306c0 .489.353.906.836.986l1.613.269a7 7 0 001.228 2.075l-.558 1.487a1 1 0 00.436 1.217l1.997 1.153c.423.244.961.147 1.272-.23l1.04-1.263a7.089 7.089 0 002.272 0l1.04 1.263a1 1 0 001.272.23l1.997-1.153a1 1 0 00.436-1.217l-.557-1.487c.521-.61.94-1.31 1.228-2.075l1.613-.269a.999.999 0 00.835-.986V9.847a.999.999 0 00-.836-.986zM11 15a4 4 0 110-8 4 4 0 010 8z"></path>
  </symbol>  
  <symbol id="vplayer-volume" viewBox="0 0 22 22"> 
   <path d="M10.188 4.65L6 8H5a2 2 0 00-2 2v2a2 2 0 002 2h1l4.188 3.35a.5.5 0 00.812-.39V5.04a.498.498 0 00-.812-.39zM14.446 3.778a1 1 0 00-.862 1.804 6.002 6.002 0 01-.007 10.838 1 1 0 00.86 1.806A8.001 8.001 0 0019 11a8.001 8.001 0 00-4.554-7.222z"></path>
   <path d="M15 11a3.998 3.998 0 00-2-3.465v6.93A3.998 3.998 0 0015 11z"></path>
  </symbol>
</svg>
